<?xml version="1.0" encoding="UTF-8" standalone="no"?>
<!DOCTYPE svg PUBLIC "-//W3C//DTD SVG 1.1//EN" "http://www.w3.org/Graphics/SVG/1.1/DTD/svg11.dtd">
<!-- Generiert durch Microsoft Visio, SVG Export more-complex-git-object-graph.svg Zeichenblatt-1 -->
<svg xmlns="http://www.w3.org/2000/svg" xmlns:xlink="http://www.w3.org/1999/xlink" xmlns:ev="http://www.w3.org/2001/xml-events"
		xmlns:v="http://schemas.microsoft.com/visio/2003/SVGExtensions/"
		viewBox="0 0 548.543 362.53" xml:space="preserve" color-interpolation-filters="sRGB" class="st16">
	<v:documentProperties v:langID="1031" v:metric="true" v:viewMarkup="false"/>

	<style type="text/css">
	<![CDATA[
		.st1 {fill:none;stroke:none;stroke-width:0.999999}
		.st2 {fill:none;stroke:none;stroke-linecap:butt;stroke-width:0.75}
		.st3 {fill:#5b9bd5;font-family:Calibri;font-size:0.833336em;opacity:0.219608}
		.st4 {fill:none;stroke:none;stroke-width:0.25}
		.st5 {fill:#000000;font-family:Calibri;font-size:0.833336em}
		.st6 {fill:#5b9bd5;fill-opacity:0.22;stroke:#5b9bd5;stroke-opacity:0.22;stroke-width:0.999999}
		.st7 {fill:#a8d08d;stroke:#c7c8c8;stroke-width:0.25}
		.st8 {fill:#feffff;font-family:Calibri;font-size:0.833336em}
		.st9 {fill:#f4b183;stroke:#c7c8c8;stroke-width:0.25}
		.st10 {fill:#0c0c0c;font-family:Calibri;font-size:0.833336em}
		.st11 {fill:none}
		.st12 {stroke:#000000;stroke-linecap:round;stroke-linejoin:round;stroke-width:0.999999}
		.st13 {fill:#000000;stroke:none;stroke-width:0.999999}
		.st14 {fill:#5b9bd5;stroke:#c7c8c8;stroke-width:0.25}
		.st15 {fill:#ffffff;stroke:none;stroke-linecap:butt;stroke-width:7.19999}
		.st16 {fill:none;fill-rule:evenodd;font-size:12px;overflow:visible;stroke-linecap:square;stroke-miterlimit:3}
	]]>
	</style>

	<g v:mID="0" v:index="1" v:groupContext="foregroundPage">
		<title>Zeichenblatt-1</title>
		<v:pageProperties v:drawingScale="1" v:pageScale="1" v:drawingUnits="19" v:shadowOffsetX="9" v:shadowOffsetY="-9"/>
		<g id="group1-1" transform="translate(0.654401,-0.999999)" v:mID="1" v:groupContext="group">
			<title>Zeichenblatt-1</title>
			<g id="group2-2" transform="translate(-1.83853E-13,-172.367)" v:mID="2" v:groupContext="group">
				<title>Tabelle.14</title>
				<g id="group3-3" transform="translate(6.95831,5.68434E-13)" v:mID="3" v:groupContext="group">
					<v:userDefs/>
					<title>Tabelle.4</title>
					<desc>341cf04</desc>
					<g id="group4-4" transform="translate(0.345598,1.13687E-13)" v:mID="4" v:groupContext="group">
						<title>shadow4-3</title>
						<g id="shape5-5" v:mID="5" v:groupContext="shape">
							<title>Tabelle.5</title>
							<rect x="0" y="340.127" width="49.8628" height="22.4037" class="st1"/>
						</g>
						<g id="shape6-7" v:mID="6" v:groupContext="shape" transform="translate(8.61999,-5.20568)">
							<title>Tabelle.6</title>
							<desc>341cf04</desc>
							<v:textBlock v:margins="rect(0,0,0,0)"/>
							<v:textRect cx="35.0001" cy="356.53" width="70.01" height="12"/>
							<rect x="0" y="350.53" width="70.0001" height="12" class="st2"/>
							<text x="0" y="359.53" class="st3" v:langID="1031"><v:paragraph/><v:tabList/>341cf04</text>						</g>
					</g>
					<g id="shape7-10" v:mID="7" v:groupContext="shape" transform="translate(1.95843E-13,-1.97279)">
						<title>Tabelle.7</title>
						<rect x="0" y="340.127" width="49.8628" height="22.4037" class="st4"/>
					</g>
					<g id="shape8-12" v:mID="8" v:groupContext="shape" transform="translate(8.61999,-7.17847)">
						<title>Tabelle.8</title>
						<desc>341cf04</desc>
						<v:textBlock v:margins="rect(0,0,0,0)"/>
						<v:textRect cx="35.0001" cy="356.53" width="70.01" height="12"/>
						<rect x="0" y="350.53" width="70.0001" height="12" class="st2"/>
						<text x="0" y="359.53" class="st5" v:langID="1031"><v:paragraph/><v:tabList/>341cf04</text>					</g>
				</g>
				<g id="group9-15" transform="translate(3.79696E-13,-22.3994)" v:mID="9" v:groupContext="group">
					<v:userDefs/>
					<title>Dreieck</title>
					<desc>Tree</desc>
					<g id="shape10-16" v:mID="10" v:groupContext="shape" transform="translate(0.345598,6.25278E-13)">
						<title>Tabelle.10</title>
						<path d="M63.78 362.53 L31.89 320.01 L0 362.53 L63.78 362.53 Z" class="st6"/>
					</g>
					<g id="shape11-18" v:mID="11" v:groupContext="shape" transform="translate(2.23821E-13,-1.97279)">
						<title>Tabelle.11</title>
						<path d="M63.78 362.53 L31.89 320.01 L0 362.53 L63.78 362.53 Z" class="st7"/>
					</g>
					<g id="shape12-20" v:mID="12" v:groupContext="shape" transform="translate(22.73,-10.1528)">
						<title>Tabelle.12</title>
						<desc>Tree</desc>
						<v:textBlock v:margins="rect(0,0,0,0)"/>
						<v:textRect cx="20" cy="356.53" width="40.01" height="12"/>
						<rect x="0" y="350.53" width="40.0001" height="12" class="st2"/>
						<text x="0" y="359.53" class="st8" v:langID="1031"><v:paragraph/><v:tabList/>Tree</text>					</g>
				</g>
			</g>
			<g id="group13-23" transform="translate(2.2273,-274.141)" v:mID="13" v:groupContext="group">
				<title>Tabelle.15</title>
				<g id="group14-24" transform="translate(-1.91847E-13,-21.387)" v:mID="14" v:groupContext="group">
					<v:userDefs/>
					<title>Kreis</title>
					<desc>Commit</desc>
					<g id="shape15-25" v:mID="15" v:groupContext="shape" transform="translate(0.345598,-2.27374E-13)">
						<title>Tabelle.15</title>
						<path d="M0 330.64 A31.89 31.89 0 0 1 63.78 330.64 A31.89 31.89 0 0 1 0 330.64 Z" class="st6"/>
					</g>
					<g id="shape16-27" v:mID="16" v:groupContext="shape" transform="translate(-2.8777E-13,-1.97279)">
						<title>Tabelle.16</title>
						<path d="M0 330.64 A31.89 31.89 0 0 1 63.78 330.64 A31.89 31.89 0 0 1 0 330.64 Z" class="st9"/>
					</g>
					<g id="shape17-29" v:mID="17" v:groupContext="shape" transform="translate(15.78,-27.8627)">
						<title>Tabelle.17</title>
						<desc>Commit</desc>
						<v:textBlock v:margins="rect(0,0,0,0)"/>
						<v:textRect cx="30.0001" cy="356.53" width="60.01" height="12"/>
						<rect x="0" y="350.53" width="60.0001" height="12" class="st2"/>
						<text x="0" y="359.53" class="st10" v:langID="1031"><v:paragraph/><v:tabList/>Commit</text>					</g>
				</g>
				<g id="group18-32" transform="translate(7.13111,-4.54747E-13)" v:mID="18" v:groupContext="group">
					<v:userDefs/>
					<title>Tabelle.9</title>
					<desc>b458701</desc>
					<g id="group19-33" transform="translate(0.345598,-1.7053E-13)" v:mID="19" v:groupContext="group">
						<title>shadow9-24</title>
						<g id="shape20-34" v:mID="20" v:groupContext="shape">
							<title>Tabelle.20</title>
							<rect x="0" y="340.127" width="49.8628" height="22.4037" class="st1"/>
						</g>
						<g id="shape21-36" v:mID="21" v:groupContext="shape" transform="translate(7.09999,-4.60568)">
							<title>Tabelle.21</title>
							<desc>b458701</desc>
							<v:textBlock v:margins="rect(0,0,0,0)"/>
							<v:textRect cx="35.0001" cy="356.53" width="70.01" height="12"/>
							<rect x="0" y="350.53" width="70.0001" height="12" class="st2"/>
							<text x="0" y="359.53" class="st3" v:langID="1031"><v:paragraph/><v:tabList/>b458701</text>						</g>
					</g>
					<g id="shape22-39" v:mID="22" v:groupContext="shape" transform="translate(5.9952E-14,-1.97279)">
						<title>Tabelle.22</title>
						<rect x="0" y="340.127" width="49.8628" height="22.4037" class="st4"/>
					</g>
					<g id="shape23-41" v:mID="23" v:groupContext="shape" transform="translate(7.09999,-6.57847)">
						<title>Tabelle.23</title>
						<desc>b458701</desc>
						<v:textBlock v:margins="rect(0,0,0,0)"/>
						<v:textRect cx="35.0001" cy="356.53" width="70.01" height="12"/>
						<rect x="0" y="350.53" width="70.0001" height="12" class="st2"/>
						<text x="0" y="359.53" class="st5" v:langID="1031"><v:paragraph/><v:tabList/>b458701</text>					</g>
				</g>
			</g>
			<g id="group24-44" transform="translate(31.8869,-246.299)" v:mID="24" v:groupContext="group">
				<title>Dynamischer Verbinder</title>
				<g id="group25-45" v:mID="25" v:groupContext="group">
					<title>Tabelle.25</title>
					<g id="shape26-46" v:mID="26" v:groupContext="shape">
						<title>Tabelle.26</title>
						<path d="M0.1 332.72 L0.1 341.62 L0 341.62 L0 362.53 L0.1 332.72 Z" class="st11"/>
						<path d="M0.1 332.72 L0.1 341.62 L0 341.62 L0 362.53" class="st12"/>
					</g>
					<g id="group27-49" transform="translate(359.01,362.53) rotate(90)" v:mID="27" v:groupContext="group">
						<title>mrkr4-36</title>
						<g id="shape28-50" v:mID="28" v:groupContext="shape" transform="translate(7.03999,718.021) rotate(180)">
							<title>Tabelle.28</title>
							<path d="M7.04 362.53 L0 359.01 L7.04 355.49 L7.04 362.53 Z" class="st13"/>
						</g>
					</g>
				</g>
			</g>
			<g id="group29-52" transform="translate(115.613,-172.367)" v:mID="29" v:groupContext="group">
				<title>Tabelle.25</title>
				<g id="group30-53" transform="translate(2.51799E-13,-22.3994)" v:mID="30" v:groupContext="group">
					<v:userDefs/>
					<title>Abgerundetes Rechteck</title>
					<desc>Blob</desc>
					<g id="shape31-54" v:mID="31" v:groupContext="shape" transform="translate(0.345598,6.25278E-13)">
						<title>Tabelle.31</title>
						<path d="M6.38 362.53 L57.4 362.53 A6.37784 6.37784 -180 0 0 63.78 356.15 L63.78 326.38 A6.37784 6.37784
									 -180 0 0 57.4 320.01 L6.38 320.01 A6.37784 6.37784 -180 0 0 0 326.38 L0 356.15 A6.37784 6.37784
									 -180 0 0 6.38 362.53 Z" class="st6"/>
					</g>
					<g id="shape32-56" v:mID="32" v:groupContext="shape" transform="translate(9.19265E-14,-1.97279)">
						<title>Tabelle.32</title>
						<path d="M6.38 362.53 L57.4 362.53 A6.37784 6.37784 -180 0 0 63.78 356.15 L63.78 326.38 A6.37784 6.37784
									 -180 0 0 57.4 320.01 L6.38 320.01 A6.37784 6.37784 -180 0 0 0 326.38 L0 356.15 A6.37784 6.37784
									 -180 0 0 6.38 362.53 Z" class="st14"/>
					</g>
					<g id="shape33-58" v:mID="33" v:groupContext="shape" transform="translate(22.76,-17.2328)">
						<title>Tabelle.33</title>
						<desc>Blob</desc>
						<v:textBlock v:margins="rect(0,0,0,0)"/>
						<v:textRect cx="20" cy="356.53" width="40.01" height="12"/>
						<rect x="0" y="350.53" width="40.0001" height="12" class="st2"/>
						<text x="-0" y="359.53" class="st8" v:langID="1031"><v:paragraph/><v:tabList/>Blob</text>					</g>
				</g>
				<g id="group34-61" transform="translate(5.29127,5.68434E-13)" v:mID="34" v:groupContext="group">
					<v:userDefs/>
					<title>Tabelle.12</title>
					<desc>b45ef6f</desc>
					<g id="group35-62" transform="translate(0.345598,1.13687E-13)" v:mID="35" v:groupContext="group">
						<title>shadow12-45</title>
						<g id="shape36-63" v:mID="36" v:groupContext="shape">
							<title>Tabelle.36</title>
							<rect x="0" y="340.127" width="53.1969" height="22.4037" class="st1"/>
						</g>
						<g id="shape37-65" v:mID="37" v:groupContext="shape" transform="translate(10.83,-5.20568)">
							<title>Tabelle.37</title>
							<desc>b45ef6f</desc>
							<v:textBlock v:margins="rect(0,0,0,0)"/>
							<v:textRect cx="35.0001" cy="356.53" width="70.01" height="12"/>
							<rect x="0" y="350.53" width="70.0001" height="12" class="st2"/>
							<text x="-0" y="359.53" class="st3" v:langID="1031"><v:paragraph/><v:tabList/>b45ef6f</text>						</g>
					</g>
					<g id="shape38-68" v:mID="38" v:groupContext="shape" transform="translate(-2.79776E-14,-1.97279)">
						<title>Tabelle.38</title>
						<rect x="0" y="340.127" width="53.1969" height="22.4037" class="st4"/>
					</g>
					<g id="shape39-70" v:mID="39" v:groupContext="shape" transform="translate(10.83,-7.17847)">
						<title>Tabelle.39</title>
						<desc>b45ef6f</desc>
						<v:textBlock v:margins="rect(0,0,0,0)"/>
						<v:textRect cx="35.0001" cy="356.53" width="70.01" height="12"/>
						<rect x="0" y="350.53" width="70.0001" height="12" class="st2"/>
						<text x="0" y="359.53" class="st5" v:langID="1031"><v:paragraph/><v:tabList/>b45ef6f</text>					</g>
				</g>
			</g>
			<g id="group40-73" transform="translate(115.613,-86.1839)" v:mID="40" v:groupContext="group">
				<title>Tabelle.26</title>
				<g id="group41-74" transform="translate(-9.27258E-13,-22.3994)" v:mID="41" v:groupContext="group">
					<v:userDefs/>
					<title>Abgerundetes Rechteck</title>
					<desc>Blob</desc>
					<g id="shape42-75" v:mID="42" v:groupContext="shape" transform="translate(0.345598,6.25278E-13)">
						<title>Tabelle.42</title>
						<path d="M6.38 362.53 L57.4 362.53 A6.37784 6.37784 -180 0 0 63.78 356.15 L63.78 326.38 A6.37784 6.37784
									 -180 0 0 57.4 320.01 L6.38 320.01 A6.37784 6.37784 -180 0 0 0 326.38 L0 356.15 A6.37784 6.37784
									 -180 0 0 6.38 362.53 Z" class="st6"/>
					</g>
					<g id="shape43-77" v:mID="43" v:groupContext="shape" transform="translate(-6.47482E-13,-1.97279)">
						<title>Tabelle.43</title>
						<path d="M6.38 362.53 L57.4 362.53 A6.37784 6.37784 -180 0 0 63.78 356.15 L63.78 326.38 A6.37784 6.37784
									 -180 0 0 57.4 320.01 L6.38 320.01 A6.37784 6.37784 -180 0 0 0 326.38 L0 356.15 A6.37784 6.37784
									 -180 0 0 6.38 362.53 Z" class="st14"/>
					</g>
					<g id="shape44-79" v:mID="44" v:groupContext="shape" transform="translate(22.76,-17.2328)">
						<title>Tabelle.44</title>
						<desc>Blob</desc>
						<v:textBlock v:margins="rect(0,0,0,0)"/>
						<v:textRect cx="20" cy="356.53" width="40.01" height="12"/>
						<rect x="0" y="350.53" width="40.0001" height="12" class="st2"/>
						<text x="0" y="359.53" class="st8" v:langID="1031"><v:paragraph/><v:tabList/>Blob</text>					</g>
				</g>
				<g id="group45-82" transform="translate(5.29127,5.68434E-13)" v:mID="45" v:groupContext="group">
					<v:userDefs/>
					<title>Tabelle.28</title>
					<desc>af729e9</desc>
					<g id="group46-83" transform="translate(0.345598,1.13687E-13)" v:mID="46" v:groupContext="group">
						<title>shadow28-60</title>
						<g id="shape47-84" v:mID="47" v:groupContext="shape">
							<title>Tabelle.47</title>
							<rect x="0" y="340.127" width="53.1969" height="22.4037" class="st1"/>
						</g>
						<g id="shape48-86" v:mID="48" v:groupContext="shape" transform="translate(10.05,-5.20568)">
							<title>Tabelle.48</title>
							<desc>af729e9</desc>
							<v:textBlock v:margins="rect(0,0,0,0)"/>
							<v:textRect cx="35.0001" cy="356.53" width="70.01" height="12"/>
							<rect x="0" y="350.53" width="70.0001" height="12" class="st2"/>
							<text x="0" y="359.53" class="st3" v:langID="1031"><v:paragraph/><v:tabList/>af729e9</text>						</g>
					</g>
					<g id="shape49-89" v:mID="49" v:groupContext="shape" transform="translate(-7.43405E-13,-1.97279)">
						<title>Tabelle.49</title>
						<rect x="0" y="340.127" width="53.1969" height="22.4037" class="st4"/>
					</g>
					<g id="shape50-91" v:mID="50" v:groupContext="shape" transform="translate(10.05,-7.17847)">
						<title>Tabelle.50</title>
						<desc>af729e9</desc>
						<v:textBlock v:margins="rect(0,0,0,0)"/>
						<v:textRect cx="35.0001" cy="356.53" width="70.01" height="12"/>
						<rect x="0" y="350.53" width="70.0001" height="12" class="st2"/>
						<text x="0" y="359.53" class="st5" v:langID="1031"><v:paragraph/><v:tabList/>af729e9</text>					</g>
				</g>
			</g>
			<g id="group51-94" transform="translate(48.2048,-217.505)" v:mID="51" v:groupContext="group">
				<title>Dynamischer Verbinder.29</title>
				<g id="group52-95" v:mID="52" v:groupContext="group">
					<title>Tabelle.52</title>
					<g id="shape53-96" v:mID="53" v:groupContext="shape">
						<title>Tabelle.53</title>
						<path d="M0 362.53 L60.37 362.08 L0 362.53 Z" class="st11"/>
						<path d="M0 362.53 L60.37 362.08" class="st12"/>
					</g>
					<g id="group54-99" transform="translate(57.6939,3.07997) rotate(-0.427077)" v:mID="54" v:groupContext="group">
						<title>mrkr4-36</title>
						<g id="shape55-100" v:mID="55" v:groupContext="shape" transform="translate(7.03999,718.021) rotate(180)">
							<title>Tabelle.55</title>
							<path d="M7.04 362.53 L0 359.01 L7.04 355.49 L7.04 362.53 Z" class="st13"/>
						</g>
					</g>
				</g>
			</g>
			<g id="group56-102" transform="translate(233.656,-274.141)" v:mID="56" v:groupContext="group">
				<title>Tabelle.32</title>
				<g id="group57-103" transform="translate(-1.15907E-12,-21.387)" v:mID="57" v:groupContext="group">
					<v:userDefs/>
					<title>Kreis</title>
					<desc>Commit</desc>
					<g id="shape58-104" v:mID="58" v:groupContext="shape" transform="translate(0.345598,-2.27374E-13)">
						<title>Tabelle.58</title>
						<path d="M0 330.64 A31.89 31.89 0 0 1 63.78 330.64 A31.89 31.89 0 0 1 0 330.64 Z" class="st6"/>
					</g>
					<g id="shape59-106" v:mID="59" v:groupContext="shape" transform="translate(-1.11111E-12,-1.97279)">
						<title>Tabelle.59</title>
						<path d="M0 330.64 A31.89 31.89 0 0 1 63.78 330.64 A31.89 31.89 0 0 1 0 330.64 Z" class="st9"/>
					</g>
					<g id="shape60-108" v:mID="60" v:groupContext="shape" transform="translate(15.78,-27.8627)">
						<title>Tabelle.60</title>
						<desc>Commit</desc>
						<v:textBlock v:margins="rect(0,0,0,0)"/>
						<v:textRect cx="30.0001" cy="356.53" width="60.01" height="12"/>
						<rect x="0" y="350.53" width="60.0001" height="12" class="st2"/>
						<text x="0" y="359.53" class="st10" v:langID="1031"><v:paragraph/><v:tabList/>Commit</text>					</g>
				</g>
				<g id="group61-111" transform="translate(7.13111,-4.54747E-13)" v:mID="61" v:groupContext="group">
					<v:userDefs/>
					<title>Tabelle.34</title>
					<desc>738f9sc</desc>
					<g id="group62-112" transform="translate(0.345598,-1.7053E-13)" v:mID="62" v:groupContext="group">
						<title>shadow34-80</title>
						<g id="shape63-113" v:mID="63" v:groupContext="shape">
							<title>Tabelle.63</title>
							<rect x="0" y="340.127" width="49.8628" height="22.4037" class="st1"/>
						</g>
						<g id="shape64-115" v:mID="64" v:groupContext="shape" transform="translate(9.19999,-4.60568)">
							<title>Tabelle.64</title>
							<desc>738f9sc</desc>
							<v:textBlock v:margins="rect(0,0,0,0)"/>
							<v:textRect cx="35.0001" cy="356.53" width="70.01" height="12"/>
							<rect x="0" y="350.53" width="70.0001" height="12" class="st2"/>
							<text x="-0" y="359.53" class="st3" v:langID="1031"><v:paragraph/><v:tabList/>738f9sc</text>						</g>
					</g>
					<g id="shape65-118" v:mID="65" v:groupContext="shape" transform="translate(-1.17906E-12,-1.97279)">
						<title>Tabelle.65</title>
						<rect x="0" y="340.127" width="49.8628" height="22.4037" class="st4"/>
					</g>
					<g id="shape66-120" v:mID="66" v:groupContext="shape" transform="translate(9.19999,-6.57847)">
						<title>Tabelle.66</title>
						<desc>738f9sc</desc>
						<v:textBlock v:margins="rect(0,0,0,0)"/>
						<v:textRect cx="35.0001" cy="356.53" width="70.01" height="12"/>
						<rect x="0" y="350.53" width="70.0001" height="12" class="st2"/>
						<text x="0" y="359.53" class="st5" v:langID="1031"><v:paragraph/><v:tabList/>738f9sc</text>					</g>
				</g>
			</g>
			<g id="group67-123" transform="translate(231.226,-172.367)" v:mID="67" v:groupContext="group">
				<title>Tabelle.35</title>
				<g id="group68-124" transform="translate(6.95831,5.68434E-13)" v:mID="68" v:groupContext="group">
					<v:userDefs/>
					<title>Tabelle.36</title>
					<desc>341cf04</desc>
					<g id="group69-125" transform="translate(0.345598,1.13687E-13)" v:mID="69" v:groupContext="group">
						<title>shadow36-89</title>
						<g id="shape70-126" v:mID="70" v:groupContext="shape">
							<title>Tabelle.70</title>
							<rect x="0" y="340.127" width="49.8628" height="22.4037" class="st1"/>
						</g>
						<g id="shape71-128" v:mID="71" v:groupContext="shape" transform="translate(8.61999,-5.20568)">
							<title>Tabelle.71</title>
							<desc>341cf04</desc>
							<v:textBlock v:margins="rect(0,0,0,0)"/>
							<v:textRect cx="35.0001" cy="356.53" width="70.01" height="12"/>
							<rect x="0" y="350.53" width="70.0001" height="12" class="st2"/>
							<text x="-0" y="359.53" class="st3" v:langID="1031"><v:paragraph/><v:tabList/>341cf04</text>						</g>
					</g>
					<g id="shape72-131" v:mID="72" v:groupContext="shape" transform="translate(1.95843E-13,-1.97279)">
						<title>Tabelle.72</title>
						<rect x="0" y="340.127" width="49.8628" height="22.4037" class="st4"/>
					</g>
					<g id="shape73-133" v:mID="73" v:groupContext="shape" transform="translate(8.61999,-7.17847)">
						<title>Tabelle.73</title>
						<desc>341cf04</desc>
						<v:textBlock v:margins="rect(0,0,0,0)"/>
						<v:textRect cx="35.0001" cy="356.53" width="70.01" height="12"/>
						<rect x="0" y="350.53" width="70.0001" height="12" class="st2"/>
						<text x="-0" y="359.53" class="st5" v:langID="1031"><v:paragraph/><v:tabList/>341cf04</text>					</g>
				</g>
				<g id="group74-136" transform="translate(3.79696E-13,-22.3994)" v:mID="74" v:groupContext="group">
					<v:userDefs/>
					<title>Dreieck</title>
					<desc>Tree</desc>
					<g id="shape75-137" v:mID="75" v:groupContext="shape" transform="translate(0.345598,6.25278E-13)">
						<title>Tabelle.75</title>
						<path d="M63.78 362.53 L31.89 320.01 L0 362.53 L63.78 362.53 Z" class="st6"/>
					</g>
					<g id="shape76-139" v:mID="76" v:groupContext="shape" transform="translate(2.23821E-13,-1.97279)">
						<title>Tabelle.76</title>
						<path d="M63.78 362.53 L31.89 320.01 L0 362.53 L63.78 362.53 Z" class="st7"/>
					</g>
					<g id="shape77-141" v:mID="77" v:groupContext="shape" transform="translate(22.73,-10.1528)">
						<title>Tabelle.77</title>
						<desc>Tree</desc>
						<v:textBlock v:margins="rect(0,0,0,0)"/>
						<v:textRect cx="20" cy="356.53" width="40.01" height="12"/>
						<rect x="0" y="350.53" width="40.0001" height="12" class="st2"/>
						<text x="0" y="359.53" class="st8" v:langID="1031"><v:paragraph/><v:tabList/>Tree</text>					</g>
				</g>
			</g>
			<g id="group78-144" transform="translate(263.114,-246.299)" v:mID="78" v:groupContext="group">
				<title>Dynamischer Verbinder.38</title>
				<g id="group79-145" v:mID="79" v:groupContext="group">
					<title>Tabelle.79</title>
					<g id="shape80-146" v:mID="80" v:groupContext="shape">
						<title>Tabelle.80</title>
						<path d="M0.31 332.72 L0.31 343.35 L0 343.35 L0 362.53 L0.31 332.72 Z" class="st11"/>
						<path d="M0.31 332.72 L0.31 343.35 L0 343.35 L0 362.53" class="st12"/>
					</g>
					<g id="group81-149" transform="translate(359.01,362.53) rotate(90)" v:mID="81" v:groupContext="group">
						<title>mrkr4-36</title>
						<g id="shape82-150" v:mID="82" v:groupContext="shape" transform="translate(7.03999,718.021) rotate(180)">
							<title>Tabelle.82</title>
							<path d="M7.04 362.53 L0 359.01 L7.04 355.49 L7.04 362.53 Z" class="st13"/>
						</g>
					</g>
				</g>
			</g>
			<g id="group83-152" transform="translate(73.0458,-323.393)" v:mID="83" v:groupContext="group">
				<v:userDefs/>
				<title>Dynamischer Verbinder.43</title>
				<desc>parent</desc>
				<g id="group84-153" transform="translate(-9.43245E-13,-6)" v:mID="84" v:groupContext="group">
					<title>Tabelle.84</title>
					<g id="shape85-154" v:mID="85" v:groupContext="shape">
						<title>Tabelle.85</title>
						<path d="M160.61 362.53 L0 362.53 L160.61 362.53 Z" class="st11"/>
						<path d="M160.61 362.53 L0 362.53" class="st12"/>
					</g>
					<g id="group86-157" transform="translate(-9.59233E-13,721.541) rotate(180)" v:mID="86" v:groupContext="group">
						<title>mrkr4-36</title>
						<g id="shape87-158" v:mID="87" v:groupContext="shape" transform="translate(7.03999,718.021) rotate(180)">
							<title>Tabelle.87</title>
							<path d="M7.04 362.53 L0 359.01 L7.04 355.49 L7.04 362.53 Z" class="st13"/>
						</g>
					</g>
				</g>
				<g id="shape88-160" v:mID="88" v:groupContext="shape" transform="translate(63.2307,-0.000909599)">
					<title>Tabelle.88</title>
					<rect x="0" y="350.53" width="27.1096" height="12.0001" class="st15"/>
				</g>
				<g id="shape89-162" v:mID="89" v:groupContext="shape" transform="translate(63.2299,0)">
					<title>Tabelle.89</title>
					<desc>parent</desc>
					<v:textBlock v:margins="rect(0,0,0,0)"/>
					<v:textRect cx="30.0001" cy="356.53" width="60.01" height="12"/>
					<rect x="0" y="350.53" width="60.0001" height="12" class="st2"/>
					<text x="0" y="359.53" class="st10" v:langID="1031"><v:paragraph/><v:tabList/>parent</text>				</g>
			</g>
			<g id="group90-165" transform="translate(186.428,-218.033)" v:mID="90" v:groupContext="group">
				<title>Dynamischer Verbinder.44</title>
				<g id="group91-166" v:mID="91" v:groupContext="group">
					<title>Tabelle.91</title>
					<g id="shape92-167" v:mID="92" v:groupContext="shape">
						<title>Tabelle.92</title>
						<path d="M60.98 362.24 L0 362.53 L60.98 362.24 Z" class="st11"/>
						<path d="M60.98 362.24 L0 362.53" class="st12"/>
					</g>
					<g id="group93-170" transform="translate(1.70731,721.536) rotate(179.728)" v:mID="93" v:groupContext="group">
						<title>mrkr4-36</title>
						<g id="shape94-171" v:mID="94" v:groupContext="shape" transform="translate(7.03999,718.021) rotate(180)">
							<title>Tabelle.94</title>
							<path d="M7.04 362.53 L0 359.01 L7.04 355.49 L7.04 362.53 Z" class="st13"/>
						</g>
					</g>
				</g>
			</g>
			<g id="group95-173" transform="translate(346.838,-172.367)" v:mID="95" v:groupContext="group">
				<title>Tabelle.45</title>
				<g id="group96-174" transform="translate(7.03437E-13,-22.3994)" v:mID="96" v:groupContext="group">
					<v:userDefs/>
					<title>Abgerundetes Rechteck</title>
					<desc>Blob</desc>
					<g id="shape97-175" v:mID="97" v:groupContext="shape" transform="translate(0.345598,6.25278E-13)">
						<title>Tabelle.97</title>
						<path d="M6.38 362.53 L57.4 362.53 A6.37784 6.37784 -180 0 0 63.78 356.15 L63.78 326.38 A6.37784 6.37784
									 -180 0 0 57.4 320.01 L6.38 320.01 A6.37784 6.37784 -180 0 0 0 326.38 L0 356.15 A6.37784 6.37784
									 -180 0 0 6.38 362.53 Z" class="st6"/>
					</g>
					<g id="shape98-177" v:mID="98" v:groupContext="shape" transform="translate(5.47562E-13,-1.97279)">
						<title>Tabelle.98</title>
						<path d="M6.38 362.53 L57.4 362.53 A6.37784 6.37784 -180 0 0 63.78 356.15 L63.78 326.38 A6.37784 6.37784
									 -180 0 0 57.4 320.01 L6.38 320.01 A6.37784 6.37784 -180 0 0 0 326.38 L0 356.15 A6.37784 6.37784
									 -180 0 0 6.38 362.53 Z" class="st14"/>
					</g>
					<g id="shape99-179" v:mID="99" v:groupContext="shape" transform="translate(22.76,-17.2328)">
						<title>Tabelle.99</title>
						<desc>Blob</desc>
						<v:textBlock v:margins="rect(0,0,0,0)"/>
						<v:textRect cx="20" cy="356.53" width="40.01" height="12"/>
						<rect x="0" y="350.53" width="40.0001" height="12" class="st2"/>
						<text x="0" y="359.53" class="st8" v:langID="1031"><v:paragraph/><v:tabList/>Blob</text>					</g>
				</g>
				<g id="group100-182" transform="translate(5.29127,5.68434E-13)" v:mID="100" v:groupContext="group">
					<v:userDefs/>
					<title>Tabelle.47</title>
					<desc>012f7cd</desc>
					<g id="group101-183" transform="translate(0.345598,1.13687E-13)" v:mID="101" v:groupContext="group">
						<title>shadow47-127</title>
						<g id="shape102-184" v:mID="102" v:groupContext="shape">
							<title>Tabelle.102</title>
							<rect x="0" y="340.127" width="53.1969" height="22.4037" class="st1"/>
						</g>
						<g id="shape103-186" v:mID="103" v:groupContext="shape" transform="translate(10.19,-5.20568)">
							<title>Tabelle.103</title>
							<desc>012f7cd</desc>
							<v:textBlock v:margins="rect(0,0,0,0)"/>
							<v:textRect cx="35.0001" cy="356.53" width="70.01" height="12"/>
							<rect x="0" y="350.53" width="70.0001" height="12" class="st2"/>
							<text x="0" y="359.53" class="st3" v:langID="1031"><v:paragraph/><v:tabList/>012f7cd</text>						</g>
					</g>
					<g id="shape104-189" v:mID="104" v:groupContext="shape" transform="translate(6.39488E-13,-1.97279)">
						<title>Tabelle.104</title>
						<rect x="0" y="340.127" width="53.1969" height="22.4037" class="st4"/>
					</g>
					<g id="shape105-191" v:mID="105" v:groupContext="shape" transform="translate(10.19,-7.17847)">
						<title>Tabelle.105</title>
						<desc>012f7cd</desc>
						<v:textBlock v:margins="rect(0,0,0,0)"/>
						<v:textRect cx="35.0001" cy="356.53" width="70.01" height="12"/>
						<rect x="0" y="350.53" width="70.0001" height="12" class="st2"/>
						<text x="0" y="359.53" class="st5" v:langID="1031"><v:paragraph/><v:tabList/>012f7cd</text>					</g>
				</g>
			</g>
			<g id="group106-194" transform="translate(346.838,-86.1839)" v:mID="106" v:groupContext="group">
				<title>Tabelle.48</title>
				<g id="group107-195" transform="translate(-8.19345E-13,-22.3994)" v:mID="107" v:groupContext="group">
					<v:userDefs/>
					<title>Abgerundetes Rechteck</title>
					<desc>Blob</desc>
					<g id="shape108-196" v:mID="108" v:groupContext="shape" transform="translate(0.345598,6.25278E-13)">
						<title>Tabelle.108</title>
						<path d="M6.38 362.53 L57.4 362.53 A6.37784 6.37784 -180 0 0 63.78 356.15 L63.78 326.38 A6.37784 6.37784
									 -180 0 0 57.4 320.01 L6.38 320.01 A6.37784 6.37784 -180 0 0 0 326.38 L0 356.15 A6.37784 6.37784
									 -180 0 0 6.38 362.53 Z" class="st6"/>
					</g>
					<g id="shape109-198" v:mID="109" v:groupContext="shape" transform="translate(-5.39568E-13,-1.97279)">
						<title>Tabelle.109</title>
						<path d="M6.38 362.53 L57.4 362.53 A6.37784 6.37784 -180 0 0 63.78 356.15 L63.78 326.38 A6.37784 6.37784
									 -180 0 0 57.4 320.01 L6.38 320.01 A6.37784 6.37784 -180 0 0 0 326.38 L0 356.15 A6.37784 6.37784
									 -180 0 0 6.38 362.53 Z" class="st14"/>
					</g>
					<g id="shape110-200" v:mID="110" v:groupContext="shape" transform="translate(22.76,-17.2328)">
						<title>Tabelle.110</title>
						<desc>Blob</desc>
						<v:textBlock v:margins="rect(0,0,0,0)"/>
						<v:textRect cx="20" cy="356.53" width="40.01" height="12"/>
						<rect x="0" y="350.53" width="40.0001" height="12" class="st2"/>
						<text x="0" y="359.53" class="st8" v:langID="1031"><v:paragraph/><v:tabList/>Blob</text>					</g>
				</g>
				<g id="group111-203" transform="translate(5.29127,5.68434E-13)" v:mID="111" v:groupContext="group">
					<v:userDefs/>
					<title>Tabelle.50</title>
					<desc>fe8a6ce</desc>
					<g id="group112-204" transform="translate(0.345598,1.13687E-13)" v:mID="112" v:groupContext="group">
						<title>shadow50-142</title>
						<g id="shape113-205" v:mID="113" v:groupContext="shape">
							<title>Tabelle.113</title>
							<rect x="0" y="340.127" width="53.1969" height="22.4037" class="st1"/>
						</g>
						<g id="shape114-207" v:mID="114" v:groupContext="shape" transform="translate(10.52,-5.20568)">
							<title>Tabelle.114</title>
							<desc>fe8a6ce</desc>
							<v:textBlock v:margins="rect(0,0,0,0)"/>
							<v:textRect cx="35.0001" cy="356.53" width="70.01" height="12"/>
							<rect x="0" y="350.53" width="70.0001" height="12" class="st2"/>
							<text x="0" y="359.53" class="st3" v:langID="1031"><v:paragraph/><v:tabList/>fe8a6ce</text>						</g>
					</g>
					<g id="shape115-210" v:mID="115" v:groupContext="shape" transform="translate(-9.43245E-13,-1.97279)">
						<title>Tabelle.115</title>
						<rect x="0" y="340.127" width="53.1969" height="22.4037" class="st4"/>
					</g>
					<g id="shape116-212" v:mID="116" v:groupContext="shape" transform="translate(10.52,-7.17847)">
						<title>Tabelle.116</title>
						<desc>fe8a6ce</desc>
						<v:textBlock v:margins="rect(0,0,0,0)"/>
						<v:textRect cx="35.0001" cy="356.53" width="70.01" height="12"/>
						<rect x="0" y="350.53" width="70.0001" height="12" class="st2"/>
						<text x="0" y="359.53" class="st5" v:langID="1031"><v:paragraph/><v:tabList/>fe8a6ce</text>					</g>
				</g>
			</g>
			<g id="group117-215" transform="translate(279.431,-217.505)" v:mID="117" v:groupContext="group">
				<title>Dynamischer Verbinder.52</title>
				<g id="group118-216" v:mID="118" v:groupContext="group">
					<title>Tabelle.118</title>
					<g id="shape119-217" v:mID="119" v:groupContext="shape">
						<title>Tabelle.119</title>
						<path d="M0 362.53 L60.37 362.08 L0 362.53 Z" class="st11"/>
						<path d="M0 362.53 L60.37 362.08" class="st12"/>
					</g>
					<g id="group120-220" transform="translate(57.6939,3.07997) rotate(-0.427077)" v:mID="120"
							v:groupContext="group">
						<title>mrkr4-36</title>
						<g id="shape121-221" v:mID="121" v:groupContext="shape" transform="translate(7.03999,718.021) rotate(180)">
							<title>Tabelle.121</title>
							<path d="M7.04 362.53 L0 359.01 L7.04 355.49 L7.04 362.53 Z" class="st13"/>
						</g>
					</g>
				</g>
			</g>
			<g id="group122-223" transform="translate(346.838,0)" v:mID="122" v:groupContext="group">
				<title>Tabelle.53</title>
				<g id="group123-224" transform="translate(6.95831,5.68434E-13)" v:mID="123" v:groupContext="group">
					<v:userDefs/>
					<title>Tabelle.54</title>
					<desc>4ff4e21</desc>
					<g id="group124-225" transform="translate(0.345598,1.13687E-13)" v:mID="124" v:groupContext="group">
						<title>shadow54-156</title>
						<g id="shape125-226" v:mID="125" v:groupContext="shape">
							<title>Tabelle.125</title>
							<rect x="0" y="340.127" width="49.8628" height="22.4037" class="st1"/>
						</g>
						<g id="shape126-228" v:mID="126" v:groupContext="shape" transform="translate(9.25999,-5.20568)">
							<title>Tabelle.126</title>
							<desc>4ff4e21</desc>
							<v:textBlock v:margins="rect(0,0,0,0)"/>
							<v:textRect cx="35.0001" cy="356.53" width="70.01" height="12"/>
							<rect x="0" y="350.53" width="70.0001" height="12" class="st2"/>
							<text x="0" y="359.53" class="st3" v:langID="1031"><v:paragraph/><v:tabList/>4ff4e21</text>						</g>
					</g>
					<g id="shape127-231" v:mID="127" v:groupContext="shape" transform="translate(1.31894E-13,-1.97279)">
						<title>Tabelle.127</title>
						<rect x="0" y="340.127" width="49.8628" height="22.4037" class="st4"/>
					</g>
					<g id="shape128-233" v:mID="128" v:groupContext="shape" transform="translate(9.25999,-7.17847)">
						<title>Tabelle.128</title>
						<desc>4ff4e21</desc>
						<v:textBlock v:margins="rect(0,0,0,0)"/>
						<v:textRect cx="35.0001" cy="356.53" width="70.01" height="12"/>
						<rect x="0" y="350.53" width="70.0001" height="12" class="st2"/>
						<text x="0" y="359.53" class="st5" v:langID="1031"><v:paragraph/><v:tabList/>4ff4e21</text>					</g>
				</g>
				<g id="group129-236" transform="translate(-6.47482E-13,-22.3994)" v:mID="129" v:groupContext="group">
					<v:userDefs/>
					<title>Dreieck</title>
					<desc>Tree</desc>
					<g id="shape130-237" v:mID="130" v:groupContext="shape" transform="translate(0.345598,6.25278E-13)">
						<title>Tabelle.130</title>
						<path d="M63.78 362.53 L31.89 320.01 L0 362.53 L63.78 362.53 Z" class="st6"/>
					</g>
					<g id="shape131-239" v:mID="131" v:groupContext="shape" transform="translate(-3.67706E-13,-1.97279)">
						<title>Tabelle.131</title>
						<path d="M63.78 362.53 L31.89 320.01 L0 362.53 L63.78 362.53 Z" class="st7"/>
					</g>
					<g id="shape132-241" v:mID="132" v:groupContext="shape" transform="translate(22.73,-10.1528)">
						<title>Tabelle.132</title>
						<desc>Tree</desc>
						<v:textBlock v:margins="rect(0,0,0,0)"/>
						<v:textRect cx="20" cy="356.53" width="40.01" height="12"/>
						<rect x="0" y="350.53" width="40.0001" height="12" class="st2"/>
						<text x="0" y="359.53" class="st8" v:langID="1031"><v:paragraph/><v:tabList/>Tree</text>					</g>
				</g>
			</g>
			<g id="group133-244" transform="translate(462.451,0)" v:mID="133" v:groupContext="group">
				<title>Tabelle.59</title>
				<g id="group134-245" transform="translate(-6.19504E-13,-22.3994)" v:mID="134" v:groupContext="group">
					<v:userDefs/>
					<title>Abgerundetes Rechteck</title>
					<desc>Blob</desc>
					<g id="shape135-246" v:mID="135" v:groupContext="shape" transform="translate(0.345598,6.25278E-13)">
						<title>Tabelle.135</title>
						<path d="M6.38 362.53 L57.4 362.53 A6.37784 6.37784 -180 0 0 63.78 356.15 L63.78 326.38 A6.37784 6.37784
									 -180 0 0 57.4 320.01 L6.38 320.01 A6.37784 6.37784 -180 0 0 0 326.38 L0 356.15 A6.37784 6.37784
									 -180 0 0 6.38 362.53 Z" class="st6"/>
					</g>
					<g id="shape136-248" v:mID="136" v:groupContext="shape" transform="translate(-7.71383E-13,-1.97279)">
						<title>Tabelle.136</title>
						<path d="M6.38 362.53 L57.4 362.53 A6.37784 6.37784 -180 0 0 63.78 356.15 L63.78 326.38 A6.37784 6.37784
									 -180 0 0 57.4 320.01 L6.38 320.01 A6.37784 6.37784 -180 0 0 0 326.38 L0 356.15 A6.37784 6.37784
									 -180 0 0 6.38 362.53 Z" class="st14"/>
					</g>
					<g id="shape137-250" v:mID="137" v:groupContext="shape" transform="translate(22.76,-17.2328)">
						<title>Tabelle.137</title>
						<desc>Blob</desc>
						<v:textBlock v:margins="rect(0,0,0,0)"/>
						<v:textRect cx="20" cy="356.53" width="40.01" height="12"/>
						<rect x="0" y="350.53" width="40.0001" height="12" class="st2"/>
						<text x="0" y="359.53" class="st8" v:langID="1031"><v:paragraph/><v:tabList/>Blob</text>					</g>
				</g>
				<g id="group138-253" transform="translate(5.29127,5.68434E-13)" v:mID="138" v:groupContext="group">
					<v:userDefs/>
					<title>Tabelle.61</title>
					<desc>a77e123</desc>
					<g id="group139-254" transform="translate(0.345598,1.13687E-13)" v:mID="139" v:groupContext="group">
						<title>shadow61-177</title>
						<g id="shape140-255" v:mID="140" v:groupContext="shape">
							<title>Tabelle.140</title>
							<rect x="0" y="340.127" width="53.1969" height="22.4037" class="st1"/>
						</g>
						<g id="shape141-257" v:mID="141" v:groupContext="shape" transform="translate(9.04999,-5.20568)">
							<title>Tabelle.141</title>
							<desc>a77e123</desc>
							<v:textBlock v:margins="rect(0,0,0,0)"/>
							<v:textRect cx="35.0001" cy="356.53" width="70.01" height="12"/>
							<rect x="0" y="350.53" width="70.0001" height="12" class="st2"/>
							<text x="0" y="359.53" class="st3" v:langID="1031"><v:paragraph/><v:tabList/>a77e123</text>						</g>
					</g>
					<g id="shape142-260" v:mID="142" v:groupContext="shape" transform="translate(-1.9984E-14,-1.97279)">
						<title>Tabelle.142</title>
						<rect x="0" y="340.127" width="53.1969" height="22.4037" class="st4"/>
					</g>
					<g id="shape143-262" v:mID="143" v:groupContext="shape" transform="translate(9.04999,-7.17847)">
						<title>Tabelle.143</title>
						<desc>a77e123</desc>
						<v:textBlock v:margins="rect(0,0,0,0)"/>
						<v:textRect cx="35.0001" cy="356.53" width="70.01" height="12"/>
						<rect x="0" y="350.53" width="70.0001" height="12" class="st2"/>
						<text x="0" y="359.53" class="st5" v:langID="1031"><v:paragraph/><v:tabList/>a77e123</text>					</g>
				</g>
			</g>
			<g id="group144-265" transform="translate(395.043,-45.1384)" v:mID="144" v:groupContext="group">
				<title>Dynamischer Verbinder.64</title>
				<g id="group145-266" v:mID="145" v:groupContext="group">
					<title>Tabelle.145</title>
					<g id="shape146-267" v:mID="146" v:groupContext="shape">
						<title>Tabelle.146</title>
						<path d="M0 362.53 L60.37 362.08 L0 362.53 Z" class="st11"/>
						<path d="M0 362.53 L60.37 362.08" class="st12"/>
					</g>
					<g id="group147-270" transform="translate(57.6939,3.07997) rotate(-0.427077)" v:mID="147"
							v:groupContext="group">
						<title>mrkr4-36</title>
						<g id="shape148-271" v:mID="148" v:groupContext="shape" transform="translate(7.03999,718.021) rotate(180)">
							<title>Tabelle.148</title>
							<path d="M7.04 362.53 L0 359.01 L7.04 355.49 L7.04 362.53 Z" class="st13"/>
						</g>
					</g>
				</g>
			</g>
			<g id="group149-273" transform="translate(313.186,-131.822)" v:mID="149" v:groupContext="group">
				<title>Dynamischer Verbinder.66</title>
				<g id="group150-274" v:mID="150" v:groupContext="group">
					<title>Tabelle.150</title>
					<g id="shape151-275" v:mID="151" v:groupContext="shape">
						<title>Tabelle.151</title>
						<path d="M0 276.6 L0 362.53 L26.61 362.53 L0 276.6 Z" class="st11"/>
						<path d="M0 276.6 L0 362.53 L26.61 362.53" class="st12"/>
					</g>
					<g id="group152-278" transform="translate(26.61,3.51999)" v:mID="152" v:groupContext="group">
						<title>mrkr4-36</title>
						<g id="shape153-279" v:mID="153" v:groupContext="shape" transform="translate(7.03999,718.021) rotate(180)">
							<title>Tabelle.153</title>
							<path d="M7.04 362.53 L0 359.01 L7.04 355.49 L7.04 362.53 Z" class="st13"/>
						</g>
					</g>
				</g>
			</g>
			<g id="group154-281" transform="translate(313.186,-45.9554)" v:mID="154" v:groupContext="group">
				<title>Dynamischer Verbinder.67</title>
				<g id="group155-282" v:mID="155" v:groupContext="group">
					<title>Tabelle.155</title>
					<g id="shape156-283" v:mID="156" v:groupContext="shape">
						<title>Tabelle.156</title>
						<path d="M0 276.67 L0 362.53 L42.79 362.53 L0 276.67 Z" class="st11"/>
						<path d="M0 276.67 L0 362.53 L42.79 362.53" class="st12"/>
					</g>
					<g id="group157-286" transform="translate(42.7899,3.51999)" v:mID="157" v:groupContext="group">
						<title>mrkr4-36</title>
						<g id="shape158-287" v:mID="158" v:groupContext="shape" transform="translate(7.03999,718.021) rotate(180)">
							<title>Tabelle.158</title>
							<path d="M7.04 362.53 L0 359.01 L7.04 355.49 L7.04 362.53 Z" class="st13"/>
						</g>
					</g>
				</g>
			</g>
			<g id="group159-289" transform="translate(83.1698,-131.821)" v:mID="159" v:groupContext="group">
				<title>Dynamischer Verbinder.68</title>
				<g id="group160-290" v:mID="160" v:groupContext="group">
					<title>Tabelle.160</title>
					<g id="shape161-291" v:mID="161" v:groupContext="shape">
						<title>Tabelle.161</title>
						<path d="M0 276.59 L0 362.53 L25.4 362.53 L0 276.59 Z" class="st11"/>
						<path d="M0 276.59 L0 362.53 L25.4 362.53" class="st12"/>
					</g>
					<g id="group162-294" transform="translate(25.4,3.51999)" v:mID="162" v:groupContext="group">
						<title>mrkr4-36</title>
						<g id="shape163-295" v:mID="163" v:groupContext="shape" transform="translate(7.03999,718.021) rotate(180)">
							<title>Tabelle.163</title>
							<path d="M7.04 362.53 L0 359.01 L7.04 355.49 L7.04 362.53 Z" class="st13"/>
						</g>
					</g>
				</g>
			</g>
		</g>
	</g>
</svg>
